<svg width="163" height="20" viewBox="0 0 163 20" fill="none" xmlns="http://www.w3.org/2000/svg">
<path d="M9.376 9.68803C10.304 10.12 11.024 10.688 11.536 11.392C12.064 12.08 12.328 12.88 12.328 13.792C12.328 15.584 11.736 16.904 10.552 17.752C9.384 18.584 7.92 19 6.16 19H0.279999V1.33603H5.464C7.336 1.33603 8.808 1.72003 9.88 2.48803C10.952 3.24003 11.488 4.33603 11.488 5.77603C11.488 6.65603 11.304 7.43203 10.936 8.10403C10.568 8.76003 10.048 9.28803 9.376 9.68803ZM3.76 8.56003H5.872C6.512 8.56003 7.008 8.36803 7.36 7.98403C7.712 7.58403 7.888 7.09603 7.888 6.52003C7.888 5.92803 7.688 5.48003 7.288 5.17603C6.888 4.85603 6.336 4.69603 5.632 4.69603H3.76V8.56003ZM5.992 15.76C6.808 15.76 7.464 15.6 7.96 15.28C8.472 14.944 8.728 14.448 8.728 13.792C8.728 12.544 7.736 11.92 5.752 11.92H3.76V15.76H5.992Z" fill="white"/>
<path d="M33.0751 19H29.5951V11.824H21.6991V19H18.2191V1.33603H21.6991V8.46403H29.5951V1.33603H33.0751V19Z" fill="white"/>
<path d="M49.5533 19L45.8333 13.384H43.5053V19H40.0253V1.33603H45.3773C47.5693 1.33603 49.2653 1.87203 50.4653 2.94403C51.6813 4.00003 52.2893 5.44803 52.2893 7.28803C52.2893 8.37603 52.0573 9.40003 51.5933 10.36C51.1453 11.304 50.4493 12.048 49.5053 12.592L53.6093 19H49.5533ZM43.5053 10.024H45.9773C46.9213 10.024 47.6093 9.75203 48.0413 9.20803C48.4733 8.64803 48.6893 8.04803 48.6893 7.40803C48.6893 6.76803 48.5053 6.16003 48.1373 5.58403C47.7693 4.99203 47.0573 4.69603 46.0013 4.69603H43.5053V10.024Z" fill="white"/>
<path d="M57.1891 10.192C57.1891 8.59203 57.5891 7.09603 58.3891 5.70403C59.2051 4.31203 60.3011 3.20803 61.6771 2.39203C63.0691 1.56003 64.5731 1.14403 66.1891 1.14403C67.8051 1.14403 69.3011 1.56003 70.6771 2.39203C72.0691 3.20803 73.1731 4.31203 73.9891 5.70403C74.8211 7.09603 75.2371 8.59203 75.2371 10.192C75.2371 11.824 74.8211 13.328 73.9891 14.704C73.1731 16.08 72.0691 17.176 70.6771 17.992C69.3011 18.792 67.8051 19.192 66.1891 19.192C64.5571 19.192 63.0531 18.792 61.6771 17.992C60.3011 17.176 59.2051 16.08 58.3891 14.704C57.5891 13.328 57.1891 11.824 57.1891 10.192ZM60.7891 10.192C60.7891 11.216 61.0291 12.16 61.5091 13.024C62.0051 13.888 62.6691 14.576 63.5011 15.088C64.3491 15.584 65.2851 15.832 66.3091 15.832C67.3011 15.832 68.2051 15.584 69.0211 15.088C69.8371 14.576 70.4771 13.896 70.9411 13.048C71.4051 12.184 71.6371 11.232 71.6371 10.192C71.6371 9.13603 71.3971 8.17603 70.9171 7.31203C70.4371 6.44803 69.7811 5.76803 68.9491 5.27203C68.1331 4.76003 67.2211 4.50403 66.2131 4.50403C65.2051 4.50403 64.2851 4.76003 63.4531 5.27203C62.6371 5.76803 61.9891 6.44803 61.5091 7.31203C61.0291 8.17603 60.7891 9.13603 60.7891 10.192Z" fill="white"/>
<path d="M99.2986 0.616028V19H95.8186V10.576L90.0586 18.76H90.0106L84.4666 11.104V19H81.1066V0.616028H81.1306L90.0826 13.312L99.2506 0.616028H99.2986Z" fill="white"/>
<path d="M115 15.544H109.144L107.704 19H104.272L112.24 0.640028H112.432L120.4 19H116.368L115 15.544ZM113.848 12.616L112.144 8.32003L110.368 12.616H113.848Z" fill="white"/>
<path d="M123.1 10.192C123.1 8.59203 123.5 7.09603 124.3 5.70403C125.116 4.31203 126.212 3.20803 127.588 2.39203C128.98 1.56003 130.484 1.14403 132.1 1.14403C133.716 1.14403 135.212 1.56003 136.588 2.39203C137.98 3.20803 139.084 4.31203 139.9 5.70403C140.732 7.09603 141.148 8.59203 141.148 10.192C141.148 11.824 140.732 13.328 139.9 14.704C139.084 16.08 137.98 17.176 136.588 17.992C135.212 18.792 133.716 19.192 132.1 19.192C130.468 19.192 128.964 18.792 127.588 17.992C126.212 17.176 125.116 16.08 124.3 14.704C123.5 13.328 123.1 11.824 123.1 10.192ZM126.7 10.192C126.7 11.216 126.94 12.16 127.42 13.024C127.916 13.888 128.58 14.576 129.412 15.088C130.26 15.584 131.196 15.832 132.22 15.832C133.212 15.832 134.116 15.584 134.932 15.088C135.748 14.576 136.388 13.896 136.852 13.048C137.316 12.184 137.548 11.232 137.548 10.192C137.548 9.13603 137.308 8.17603 136.828 7.31203C136.348 6.44803 135.692 5.76803 134.86 5.27203C134.044 4.76003 133.132 4.50403 132.124 4.50403C131.116 4.50403 130.196 4.76003 129.364 5.27203C128.548 5.76803 127.9 6.44803 127.42 7.31203C126.94 8.17603 126.7 9.13603 126.7 10.192Z" fill="white"/>
<path d="M162.93 1.33603V19.72H162.833L150.474 8.56003L150.546 19H147.018V0.640028H147.161L159.497 11.968L159.426 1.33603H162.93Z" fill="white"/>
</svg>
