<svg width="777" height="96" viewBox="0 0 777 96" fill="none" xmlns="http://www.w3.org/2000/svg">
<path opacity="0.5" fill-rule="evenodd" clip-rule="evenodd" d="M391.682 95.9997H393.059H394.368C394.703 95.6073 395.194 95.0398 395.837 94.3147C397.171 92.8108 399.156 90.6291 401.759 87.926C406.964 82.5195 414.636 75.0289 424.491 66.7045C444.205 50.052 472.632 30.0838 507.509 16.7764C542.377 3.47206 583.68 -3.1711 629.183 6.79918C674.488 16.7258 724.04 43.1391 775.604 95.9997H777C576.644 -110.223 405.519 81.4676 393.709 95.2316C393.277 95.7343 393.059 95.9997 393.059 95.9997C392.828 95.7553 392.597 95.5114 392.366 95.2681C192.034 -115.97 0 95.9997 0 95.9997H1.36369C1.72837 95.6111 2.25148 95.0598 2.92846 94.3617C4.37878 92.8661 6.53514 90.6968 9.35251 88.0091C14.9875 82.6336 23.2652 75.1861 33.8255 66.9098C54.9504 50.3537 85.1856 30.4996 121.652 17.2679C158.113 4.03836 200.783 -2.56458 246.812 7.34649C292.637 17.2136 341.874 43.4662 391.682 95.9997Z" fill="white"/>
</svg>
